<mxfile host="app.diagrams.net" modified="2024-06-01T09:48:26.011Z" agent="Mozilla/5.0 (Windows NT 10.0; Win64; x64) AppleWebKit/537.36 (KHTML, like Gecko) Chrome/125.0.0.0 Safari/537.36" version="24.4.13" etag="EyAhSswL6N-U7zhT15w5" type="github">
  <diagram name="Page-1" id="DNZW0M0W0eqa-ILj3LJM">
    <mxGraphModel>
      <root>
        <mxCell id="0" />
        <mxCell id="1" parent="0" />
      </root>
    </mxGraphModel>
  </diagram>
</mxfile>
